<svg xmlns="http://www.w3.org/2000/svg" style="display:none">
<symbol id="address-card" viewBox="0 0 576 512"><path fill="currentColor" d="M64 32C28.7 32 0 60.7 0 96L0 416c0 35.3 28.7 64 64 64l448 0c35.3 0 64-28.7 64-64l0-320c0-35.3-28.7-64-64-64L64 32zm80 256l64 0c44.2 0 80 35.8 80 80 0 8.8-7.2 16-16 16L80 384c-8.8 0-16-7.2-16-16 0-44.2 35.8-80 80-80zm-24-96a56 56 0 1 1 112 0 56 56 0 1 1 -112 0zm240-48l112 0c13.3 0 24 10.7 24 24s-10.7 24-24 24l-112 0c-13.3 0-24-10.7-24-24s10.7-24 24-24zm0 96l112 0c13.3 0 24 10.7 24 24s-10.7 24-24 24l-112 0c-13.3 0-24-10.7-24-24s10.7-24 24-24z"/></symbol>
<symbol id="bars" viewBox="0 0 448 512"><path fill="currentColor" d="M0 96C0 78.3 14.3 64 32 64l384 0c17.7 0 32 14.3 32 32s-14.3 32-32 32L32 128C14.3 128 0 113.7 0 96zM0 256c0-17.7 14.3-32 32-32l384 0c17.7 0 32 14.3 32 32s-14.3 32-32 32L32 288c-17.7 0-32-14.3-32-32zM448 416c0 17.7-14.3 32-32 32L32 448c-17.7 0-32-14.3-32-32s14.3-32 32-32l384 0c17.7 0 32 14.3 32 32z"/></symbol>
<symbol id="building" viewBox="0 0 384 512"><path fill="currentColor" d="M64 0C28.7 0 0 28.7 0 64L0 448c0 35.3 28.7 64 64 64l256 0c35.3 0 64-28.7 64-64l0-384c0-35.3-28.7-64-64-64L64 0zM176 352l32 0c17.7 0 32 14.3 32 32l0 80-96 0 0-80c0-17.7 14.3-32 32-32zM96 112c0-8.8 7.2-16 16-16l32 0c8.8 0 16 7.2 16 16l0 32c0 8.8-7.2 16-16 16l-32 0c-8.8 0-16-7.2-16-16l0-32zM240 96l32 0c8.8 0 16 7.2 16 16l0 32c0 8.8-7.2 16-16 16l-32 0c-8.8 0-16-7.2-16-16l0-32c0-8.8 7.2-16 16-16zM96 240c0-8.8 7.2-16 16-16l32 0c8.8 0 16 7.2 16 16l0 32c0 8.8-7.2 16-16 16l-32 0c-8.8 0-16-7.2-16-16l0-32zm144-16l32 0c8.8 0 16 7.2 16 16l0 32c0 8.8-7.2 16-16 16l-32 0c-8.8 0-16-7.2-16-16l0-32c0-8.8 7.2-16 16-16z"/></symbol>
<symbol id="close" viewBox="0 0 384 512"><path fill="currentColor" d="M55.1 73.4c-12.5-12.5-32.8-12.5-45.3 0s-12.5 32.8 0 45.3L147.2 256 9.9 393.4c-12.5 12.5-12.5 32.8 0 45.3s32.8 12.5 45.3 0L192.5 301.3 329.9 438.6c12.5 12.5 32.8 12.5 45.3 0s12.5-32.8 0-45.3L237.8 256 375.1 118.6c12.5-12.5 12.5-32.8 0-45.3s-32.8-12.5-45.3 0L192.5 210.7 55.1 73.4z"/></symbol>
<symbol id="diamond" viewBox="0 0 512 512"><path fill="currentColor" d="M17 215L215 17C225.9 6.1 240.6 0 256 0s30.1 6.1 41 17L495 215c10.9 10.9 17 25.6 17 41s-6.1 30.1-17 41L297 495c-10.9 10.9-25.6 17-41 17s-30.1-6.1-41-17L17 297C6.1 286.1 0 271.4 0 256s6.1-30.1 17-41z"/></symbol>
<symbol id="envelope" viewBox="0 0 512 512"><path fill="currentColor" d="M48 64c-26.5 0-48 21.5-48 48 0 15.1 7.1 29.3 19.2 38.4l208 156c17.1 12.8 40.5 12.8 57.6 0l208-156c12.1-9.1 19.2-23.3 19.2-38.4 0-26.5-21.5-48-48-48L48 64zM0 196L0 384c0 35.3 28.7 64 64 64l384 0c35.3 0 64-28.7 64-64l0-188-198.4 148.8c-34.1 25.6-81.1 25.6-115.2 0L0 196z"/></symbol>
<symbol id="futbol" viewBox="0 0 512 512"><path fill="currentColor" d="M417.3 360.1l-71.6-4.8c-5.2-.3-10.3 1.1-14.5 4.2s-7.2 7.4-8.4 12.5l-17.6 69.6C289.5 445.8 273 448 256 448s-33.5-2.2-49.2-6.4L189.2 372c-1.3-5-4.3-9.4-8.4-12.5s-9.3-4.5-14.5-4.2l-71.6 4.8c-17.6-27.2-28.5-59.2-30.4-93.6L125 228.3c4.4-2.8 7.6-7 9.2-11.9s1.4-10.2-.5-15l-26.7-66.6C128 109.2 155.3 89 186.7 76.9l55.2 46c4 3.3 9 5.1 14.1 5.1s10.2-1.8 14.1-5.1l55.2-46c31.3 12.1 58.7 32.3 79.6 57.9l-26.7 66.6c-1.9 4.8-2.1 10.1-.5 15s4.9 9.1 9.2 11.9l60.7 38.2c-1.9 34.4-12.8 66.4-30.4 93.6zM256 512a256 256 0 1 0 0-512 256 256 0 1 0 0 512zm14.1-325.7c-8.4-6.1-19.8-6.1-28.2 0L194 221c-8.4 6.1-11.9 16.9-8.7 26.8l18.3 56.3c3.2 9.9 12.4 16.6 22.8 16.6l59.2 0c10.4 0 19.6-6.7 22.8-16.6l18.3-56.3c3.2-9.9-.3-20.7-8.7-26.8l-47.9-34.8z"/></symbol>
<symbol id="heart" viewBox="0 0 512 512"><path fill="currentColor" d="M241 87.1l15 20.7 15-20.7C296 52.5 336.2 32 378.9 32 452.4 32 512 91.6 512 165.1l0 2.6c0 112.2-139.9 242.5-212.9 298.2-12.4 9.4-27.6 14.1-43.1 14.1s-30.8-4.6-43.1-14.1C139.9 410.2 0 279.9 0 167.7l0-2.6C0 91.6 59.6 32 133.1 32 175.8 32 216 52.5 241 87.1z"/></symbol>
<symbol id="home" viewBox="0 0 512 512"><path fill="currentColor" d="M277.8 8.6c-12.3-11.4-31.3-11.4-43.5 0l-224 208c-9.6 9-12.8 22.9-8 35.1S18.8 272 32 272l16 0 0 176c0 35.3 28.7 64 64 64l288 0c35.3 0 64-28.7 64-64l0-176 16 0c13.2 0 25-8.1 29.8-20.3s1.6-26.2-8-35.1l-224-208zM240 320l32 0c26.5 0 48 21.5 48 48l0 96-128 0 0-96c0-26.5 21.5-48 48-48z"/></symbol>
<symbol id="key" viewBox="0 0 512 512"><path fill="currentColor" d="M336 352c97.2 0 176-78.8 176-176S433.2 0 336 0 160 78.8 160 176c0 18.7 2.9 36.8 8.3 53.7L7 391c-4.5 4.5-7 10.6-7 17l0 80c0 13.3 10.7 24 24 24l80 0c13.3 0 24-10.7 24-24l0-40 40 0c13.3 0 24-10.7 24-24l0-40 40 0c6.4 0 12.5-2.5 17-7l33.3-33.3c16.9 5.4 35 8.3 53.7 8.3zM376 96a40 40 0 1 1 0 80 40 40 0 1 1 0-80z"/></symbol>
<symbol id="life-ring" viewBox="0 0 512 512"><path fill="currentColor" d="M367.2 412.5C335.9 434.9 297.5 448 256 448s-79.9-13.1-111.2-35.5l58-58c15.8 8.6 34 13.5 53.3 13.5s37.4-4.9 53.3-13.5l58 58zm90.7 .8c33.8-43.4 54-98 54-157.3S491.8 142.1 458 98.7c9-12.5 7.9-30.1-3.4-41.3S425.8 45 413.3 54C369.9 20.2 315.3 0 256 0S142.1 20.2 98.7 54c-12.5-9-30.1-7.9-41.3 3.4S45 86.2 54 98.7C20.2 142.1 0 196.7 0 256S20.2 369.9 54 413.3c-9 12.5-7.9 30.1 3.4 41.3S86.2 467 98.7 458c43.4 33.8 98 54 157.3 54s113.9-20.2 157.3-54c12.5 9 30.1 7.9 41.3-3.4s12.4-28.8 3.4-41.3zm-45.5-46.1l-58-58c8.6-15.8 13.5-34 13.5-53.3s-4.9-37.4-13.5-53.3l58-58C434.9 176.1 448 214.5 448 256s-13.1 79.9-35.5 111.2zM367.2 99.5l-58 58c-15.8-8.6-34-13.5-53.3-13.5s-37.4 4.9-53.3 13.5l-58-58C176.1 77.1 214.5 64 256 64s79.9 13.1 111.2 35.5zM157.5 309.3l-58 58C77.1 335.9 64 297.5 64 256s13.1-79.9 35.5-111.2l58 58c-8.6 15.8-13.5 34-13.5 53.3s4.9 37.4 13.5 53.3zM208 256a48 48 0 1 1 96 0 48 48 0 1 1 -96 0z"/></symbol>
<symbol id="map-marker" viewBox="0 0 384 512"><path fill="currentColor" d="M192 0C86 0 0 84.4 0 188.6 0 307.9 120.2 450.9 170.4 505.4 182.2 518.2 201.8 518.2 213.6 505.4 263.8 450.9 384 307.9 384 188.6 384 84.4 298 0 192 0z"/></symbol>
<symbol id="people-group" viewBox="0 0 512 512"><path fill="currentColor" d="M256 0a64 64 0 1 1 0 128 64 64 0 1 1 0-128zm96 312c0 25-12.7 47-32 59.9l0 92.1c0 26.5-21.5 48-48 48l-32 0c-26.5 0-48-21.5-48-48l0-92.1C172.7 359 160 337 160 312l0-40c0-53 43-96 96-96s96 43 96 96l0 40zM96 32a56 56 0 1 1 0 112 56 56 0 1 1 0-112zm16 240l0 32c0 32.5 12.1 62.1 32 84.7l0 75.3c0 1.2 0 2.5 .1 3.7-8.5 7.6-19.7 12.3-32.1 12.3l-32 0c-26.5 0-48-21.5-48-48l0-56.6C12.9 364.4 0 343.7 0 320l0-32c0-53 43-96 96-96 12.7 0 24.8 2.5 35.9 6.9-12.6 21.4-19.9 46.4-19.9 73.1zM368 464l0-75.3c19.9-22.5 32-52.2 32-84.7l0-32c0-26.7-7.3-51.6-19.9-73.1 11.1-4.5 23.2-6.9 35.9-6.9 53 0 96 43 96 96l0 32c0 23.7-12.9 44.4-32 55.4l0 56.6c0 26.5-21.5 48-48 48l-32 0c-12.3 0-23.6-4.6-32.1-12.3 0-1.2 .1-2.5 .1-3.7zM416 32a56 56 0 1 1 0 112 56 56 0 1 1 0-112z"/></symbol>
<symbol id="phone" viewBox="0 0 512 512"><path fill="currentColor" d="M160.2 25C152.3 6.1 131.7-3.9 112.1 1.4l-5.5 1.5c-64.6 17.6-119.8 80.2-103.7 156.4 37.1 175 174.8 312.7 349.8 349.8 76.3 16.2 138.8-39.1 156.4-103.7l1.5-5.5c5.4-19.7-4.7-40.3-23.5-48.1l-97.3-40.5c-16.5-6.9-35.6-2.1-47 11.8l-38.6 47.2C233.9 335.4 177.3 277 144.8 205.3L189 169.3c13.9-11.3 18.6-30.4 11.8-47L160.2 25z"/></symbol>
<symbol id="plane" viewBox="0 0 576 512"><path fill="currentColor" d="M520 200c30.9 0 56 25.1 56 56s-25.1 56-56 56l-127.3 0-159.2 173.6c-6.1 6.6-14.6 10.4-23.6 10.4l-43.7 0c-10.9 0-18.6-10.7-15.2-21.1l54.3-162.9-99.7 0-52.8 66c-3 3.8-7.6 6-12.5 6l-19.8 0c-10.4 0-18-9.8-15.5-19.9L32 256 5 147.9C2.4 137.8 10.1 128 20.5 128l19.8 0c4.9 0 9.5 2.2 12.5 6l52.8 66 99.7 0-54.3-162.9C147.6 26.7 155.3 16 166.2 16l43.7 0c9 0 17.5 3.8 23.6 10.4L392.7 200 520 200z"/></symbol>
<symbol id="user" viewBox="0 0 448 512"><path fill="currentColor" d="M224 248a120 120 0 1 0 0-240 120 120 0 1 0 0 240zm-29.7 56C95.8 304 16 383.8 16 482.3 16 498.7 29.3 512 45.7 512l356.6 0c16.4 0 29.7-13.3 29.7-29.7 0-98.5-79.8-178.3-178.3-178.3l-59.4 0z"/></symbol>
</svg>